<svg xmlns="http://www.w3.org/2000/svg" viewBox="0 0 512 512" role="img" aria-labelledby="title desc">
  <title id="title">Biểu trưng Đoàn Thanh niên Cộng sản Hồ Chí Minh</title>
  <desc id="desc">Lá cờ đỏ sao vàng bay phía trước vòng tròn xanh với bàn tay nắm cán cờ và dòng chữ Đoàn Thanh niên Cộng sản Hồ Chí Minh.</desc>
  <defs>
    <linearGradient id="flagGradient" x1="0%" y1="0%" x2="100%" y2="100%">
      <stop offset="0%" stop-color="#f22f2f" />
      <stop offset="100%" stop-color="#c5121f" />
    </linearGradient>
    <linearGradient id="armGradient" x1="0%" y1="0%" x2="0%" y2="100%">
      <stop offset="0%" stop-color="#ffffff" />
      <stop offset="100%" stop-color="#f3f3f3" />
    </linearGradient>
    <pattern id="stripePattern" width="32" height="32" patternUnits="userSpaceOnUse" patternTransform="rotate(-28)">
      <rect width="32" height="32" fill="#0a7a3d" />
      <rect x="-8" width="16" height="48" fill="#09592c" />
    </pattern>
    <clipPath id="shieldClip">
      <path d="M256 72C192 72 120 118 120 224c0 68 34 134 92 182 30 24 72 42 112 42 80 0 152-90 152-194C476 154 352 72 256 72z" />
    </clipPath>
    <path id="textArc" d="M344 96A220 220 0 0 1 344 416" />
  </defs>
  <circle cx="256" cy="256" r="242" fill="#ffffff" stroke="#0b5f36" stroke-width="20" />
  <g clip-path="url(#shieldClip)">
    <rect x="60" y="40" width="360" height="440" fill="#0d8a45" />
    <rect x="40" y="20" width="400" height="480" fill="url(#stripePattern)" opacity="0.85" />
  </g>
  <path d="M140 320c34 36 78 54 116 54 28 0 52-10 68-26" fill="none" stroke="#ffffff" stroke-width="26" stroke-linecap="round" />
  <path d="M144 302c0-36 32-60 56-60 18 0 32 10 40 16 8-10 18-18 30-18 22 0 40 18 40 42 0 38-34 68-82 68-46 0-84-30-84-48z" fill="url(#armGradient)" />
  <path d="M220 248c14 0 26 6 36 16 8 8 18 12 30 12 18 0 34-12 46-32l20 56c-22 34-60 52-100 52-48 0-94-24-112-64l24-28c10 24 32 40 56 40 24 0 44-14 44-32 0-12-10-20-22-20-10 0-18 4-22 10z" fill="#ffffff" />
  <path d="M260 86l12 64c58 2 112-10 144-30l-12 120c-42 32-102 48-162 40l-18-94c-6-32 10-64 36-80z" fill="url(#flagGradient)" stroke="#ffffff" stroke-width="12" stroke-linejoin="round" />
  <polygon points="328,138 360,174 410,182 370,214 382,264 328,238 274,264 286,214 246,182 296,174" fill="#ffd43b" stroke="#e3a500" stroke-width="8" stroke-linejoin="round" />
  <path d="M166 294c-10-12-26-18-46-18l-10 46c16 26 44 48 82 64l22-40c-20-6-36-20-48-52z" fill="#f7f7f7" />
  <path d="M150 276l-44 16-16 72 66 34 20-34-26-12 12-40z" fill="#0d8a45" stroke="#ffffff" stroke-width="8" stroke-linejoin="round" />
  <path d="M344 96A220 220 0 0 1 344 416" fill="none" stroke="#0b5f36" stroke-width="24" stroke-linecap="round" />
  <text font-family="'Be Vietnam Pro', 'Arial', sans-serif" font-size="34" font-weight="700" fill="#d3202d" letter-spacing="4">
    <textPath href="#textArc" startOffset="50%" text-anchor="middle">ĐOÀN THANH NIÊN CỘNG SẢN HỒ CHÍ MINH</textPath>
  </text>
</svg>
